<svg width="32.000000" height="32.000000" viewBox="0 0 32 32" fill="none" xmlns="http://www.w3.org/2000/svg" xmlns:xlink="http://www.w3.org/1999/xlink">
	<desc>
			Created with Pixso.
	</desc>
	<defs/>
	<rect id="Ukrpost" rx="0.000000" width="31.000000" height="31.000000" transform="translate(0.500000 0.500000)" fill="#FFFFFF" fill-opacity="0"/>
	<path id="path14" d="M23.6 17.77C23.6 17.77 15.74 15.98 15.74 15.98C13.4 15.44 11.92 13.08 12.46 10.72C12.99 8.35 15.32 6.86 17.66 7.4C20 7.93 21.48 10.29 20.94 12.66C20.68 13.84 19.96 14.81 19.02 15.41C19.02 15.41 19.02 15.41 19.01 15.41C18.99 15.43 18.97 15.46 18.97 15.5C18.97 15.55 19 15.59 19.05 15.6C19.05 15.6 22.55 16.41 22.55 16.41C22.63 16.42 22.72 16.39 22.77 16.32C22.77 16.32 22.77 16.32 22.77 16.32C23.74 15.03 24.32 13.43 24.32 11.69C24.32 7.59 21.15 4.25 17.15 4.01C17.12 4 16.9 4 16.83 4C15.06 3.97 13.27 4.48 11.71 5.58C7.77 8.37 6.81 13.85 9.57 17.83L16.57 27.93C16.6 27.97 16.65 28 16.7 28C16.75 28 16.8 27.97 16.83 27.93C16.83 27.93 23.7 18.03 23.7 18.03C23.72 18 23.73 17.97 23.73 17.93C23.73 17.85 23.68 17.79 23.6 17.77Z" fill="#FABC26" fill-opacity="1.000000" fill-rule="nonzero"/>
</svg>
