<svg width="32.000000" height="32.000000" viewBox="0 0 32 32" fill="none" xmlns="http://www.w3.org/2000/svg" xmlns:xlink="http://www.w3.org/1999/xlink">
	<desc>
			Created with Pixso.
	</desc>
	<defs/>
	<path id="vector" d="M21.58 7L7.5 7C7.22 7 7 7.22 7 7.5C7 7.77 7.22 8 7.5 8L21.58 8C21.91 8 22.23 8.06 22.53 8.19C22.82 8.31 23.08 8.48 23.3 8.71Q23.48 8.89 23.61 9.1Q23.73 9.28 23.81 9.48Q23.9 9.68 23.94 9.88Q23.95 9.94 23.96 10L22.59 10L21.71 15.28C21.67 15.5 21.68 15.72 21.75 15.93C21.8 16.13 21.9 16.31 22.04 16.48C22.17 16.64 22.34 16.76 22.53 16.85C22.73 16.95 22.94 17 23.16 17L28.99 17L29.04 17.02C29.47 17.25 29.8 17.58 30.03 18.01C30.26 18.44 30.35 18.9 30.3 19.39L30.17 20.7C30.15 20.88 30.1 21.05 30.02 21.21C29.94 21.37 29.84 21.5 29.71 21.62C29.58 21.74 29.43 21.83 29.26 21.9C29.1 21.96 28.92 22 28.74 22L27.45 22Q27.44 21.98 27.44 21.96Q27.39 21.73 27.3 21.52Q27.21 21.31 27.08 21.12Q26.94 20.91 26.76 20.73Q26.58 20.55 26.37 20.41Q26.18 20.28 25.97 20.19C25.66 20.06 25.33 20 25 20C24.66 20 24.33 20.06 24.02 20.19C23.72 20.32 23.46 20.5 23.23 20.73Q23.05 20.91 22.91 21.12Q22.78 21.31 22.69 21.52C22.63 21.68 22.58 21.83 22.54 22L15.45 22Q15.44 21.98 15.44 21.96Q15.39 21.74 15.3 21.52C15.17 21.22 14.99 20.96 14.76 20.73C14.53 20.5 14.27 20.32 13.97 20.19C13.66 20.06 13.33 20 13 20Q12.72 20 12.46 20.05Q12.24 20.1 12.02 20.19C11.72 20.32 11.46 20.5 11.23 20.73C11 20.96 10.82 21.22 10.69 21.52C10.63 21.68 10.58 21.83 10.54 22L8.09 22C7.81 22 7.59 22.22 7.59 22.5C7.59 22.77 7.81 23 8.09 23L10.54 23Q10.55 23.01 10.55 23.03Q10.6 23.26 10.69 23.47Q10.78 23.68 10.91 23.87Q11.05 24.08 11.23 24.26Q11.41 24.44 11.62 24.58Q11.81 24.71 12.02 24.8C12.33 24.93 12.66 25 13 25Q13.27 25 13.53 24.94Q13.76 24.89 13.97 24.8Q14.18 24.71 14.37 24.58Q14.58 24.44 14.76 24.26C14.99 24.03 15.17 23.77 15.3 23.47C15.36 23.31 15.41 23.16 15.45 23L22.54 23Q22.55 23.01 22.55 23.03Q22.6 23.26 22.69 23.47Q22.78 23.68 22.91 23.87Q23.05 24.08 23.23 24.26Q23.41 24.44 23.62 24.58Q23.81 24.71 24.02 24.8C24.33 24.93 24.66 25 25 25C25.33 25 25.66 24.93 25.97 24.8Q26.18 24.71 26.37 24.58Q26.58 24.44 26.76 24.26Q26.94 24.08 27.08 23.87Q27.21 23.68 27.3 23.47C27.36 23.31 27.41 23.16 27.45 23L28.74 23C29.05 23 29.34 22.94 29.63 22.83Q29.83 22.75 30.01 22.64Q30.2 22.52 30.38 22.36C30.6 22.16 30.78 21.93 30.91 21.67C31.05 21.4 31.14 21.1 31.17 20.8L31.3 19.49C31.33 19.15 31.32 18.81 31.25 18.48Q31.2 18.24 31.12 18.01Q31.03 17.77 30.91 17.54C30.75 17.25 30.56 16.98 30.32 16.74C30.09 16.51 29.83 16.32 29.54 16.16L28.44 11.83Q28.39 11.62 28.3 11.42Q28.22 11.25 28.11 11.09C27.96 10.87 27.78 10.67 27.57 10.51Q27.41 10.38 27.23 10.28Q27.06 10.19 26.88 10.13C26.62 10.04 26.35 10 26.08 10L24.97 10Q24.95 9.84 24.92 9.69Q24.86 9.39 24.74 9.1Q24.62 8.81 24.45 8.55Q24.26 8.26 24.01 8C23.69 7.69 23.33 7.44 22.92 7.27C22.5 7.08 22.05 7 21.58 7ZM28.47 16L27.47 12.08C27.39 11.76 27.22 11.5 26.96 11.3C26.7 11.1 26.41 11 26.08 11L24.5 11L23.44 11L22.7 15.45C22.67 15.59 22.71 15.72 22.8 15.83C22.9 15.94 23.01 16 23.16 16L28.47 16ZM3.5 11L17 11L17 12L3.5 12C3.22 12 3 11.77 3 11.5C3 11.22 3.22 11 3.5 11ZM1 15L13 15L13 16L1 16C0.72 16 0.5 15.77 0.5 15.5C0.5 15.22 0.72 15 1 15ZM4.03 19L9 19L9 20L4.03 20C3.75 20 3.53 19.77 3.53 19.5C3.53 19.22 3.75 19 4.03 19ZM13.58 23.88C13.39 23.96 13.2 24 13 24C12.79 24 12.6 23.96 12.41 23.88C12.23 23.8 12.07 23.69 11.93 23.56C11.8 23.42 11.69 23.26 11.61 23.08C11.53 22.89 11.5 22.7 11.5 22.5Q11.5 22.32 11.53 22.16Q11.56 22.03 11.61 21.91C11.69 21.73 11.8 21.57 11.93 21.43C12.07 21.3 12.23 21.19 12.41 21.11C12.6 21.03 12.79 21 13 21Q13.17 21 13.33 21.03Q13.46 21.06 13.58 21.11C13.76 21.19 13.92 21.3 14.06 21.43C14.19 21.57 14.3 21.73 14.38 21.91C14.46 22.1 14.5 22.29 14.5 22.5C14.5 22.7 14.46 22.89 14.38 23.08C14.3 23.26 14.19 23.42 14.06 23.56C13.92 23.69 13.76 23.8 13.58 23.88ZM26.38 21.91C26.46 22.1 26.5 22.29 26.5 22.5C26.5 22.7 26.46 22.89 26.38 23.08C26.3 23.26 26.19 23.42 26.06 23.56C25.92 23.69 25.76 23.8 25.58 23.88C25.39 23.96 25.2 24 25 24C24.79 24 24.6 23.96 24.41 23.88C24.23 23.8 24.07 23.69 23.93 23.56C23.8 23.42 23.69 23.26 23.61 23.08C23.53 22.89 23.5 22.7 23.5 22.5C23.5 22.29 23.53 22.1 23.61 21.91C23.69 21.73 23.8 21.57 23.93 21.43C24.07 21.3 24.23 21.19 24.41 21.11C24.6 21.03 24.79 21 25 21C25.2 21 25.39 21.03 25.58 21.11C25.76 21.19 25.92 21.3 26.06 21.43C26.19 21.57 26.3 21.73 26.38 21.91Z" fill="#01579B" fill-opacity="1.000000" fill-rule="evenodd"/>
</svg>
