<svg width="51.804688" height="60.000000" viewBox="0 0 51.8047 60" fill="none" xmlns="http://www.w3.org/2000/svg" xmlns:xlink="http://www.w3.org/1999/xlink">
	<desc>
			Created with Pixso.
	</desc>
	<defs>
		<clipPath id="clip28_24791">
			<rect id="Home page/ Icons/ Achievement" rx="0.000000" width="50.804279" height="59.000000" transform="translate(0.500000 0.500000)" fill="white" fill-opacity="0"/>
		</clipPath>
	</defs>
	<rect id="Home page/ Icons/ Achievement" rx="0.000000" width="50.804279" height="59.000000" transform="translate(0.500000 0.500000)" fill="#FFFFFF" fill-opacity="0"/>
	<g clip-path="url(#clip28_24791)">
		<path id="Vector" d="M34.3 58.58L26.75 54.86C26.19 54.59 25.54 54.59 24.98 54.87L17.5 58.57C16.17 59.23 14.61 58.26 14.61 56.77L14.61 33.08C14.61 32.36 15 31.7 15.61 31.34L24.87 26.01C25.49 25.66 26.25 25.66 26.86 26.01L36.17 31.34C36.8 31.7 37.18 32.36 37.18 33.08L37.18 56.78C37.18 58.26 35.63 59.23 34.3 58.58Z" fill="#01579B" fill-opacity="1.000000" fill-rule="nonzero"/>
		<path id="Vector" d="M25.87 50.58C24.7 50.58 23.91 49.72 23.24 48.99C22.99 48.74 22.5 48.25 22.32 48.19C22.14 48.19 21.58 48.5 21.22 48.68C20.48 49.05 19.75 49.48 18.96 49.48C18.71 49.48 18.46 49.41 18.28 49.35C17.18 48.99 16.69 47.95 16.26 47.03C16.08 46.66 15.83 46.11 15.65 45.99C15.65 45.99 15.59 45.99 15.47 45.99C15.16 45.99 14.8 46.05 14.43 46.11C13.94 46.17 13.45 46.29 12.96 46.29C12.35 46.29 11.8 46.17 11.37 45.81C10.45 45.13 10.27 43.97 10.15 42.99C10.08 42.62 10.03 41.95 9.9 41.77C9.78 41.65 9.11 41.58 8.74 41.52C7.76 41.4 6.6 41.22 5.93 40.3C5.25 39.38 5.44 38.28 5.62 37.24C5.68 36.88 5.8 36.2 5.75 36.02C5.62 35.9 5.07 35.59 4.7 35.41C3.85 34.98 2.75 34.49 2.38 33.39C2.01 32.35 2.56 31.31 3.05 30.45C3.24 30.09 3.54 29.54 3.54 29.29C3.48 29.11 3.05 28.68 2.75 28.43C2.07 27.88 1.22 27.03 1.22 25.87C1.22 24.7 2.07 23.91 2.81 23.24C3.11 22.99 3.54 22.5 3.6 22.32C3.6 22.14 3.3 21.58 3.11 21.22C2.62 20.3 2.07 19.32 2.44 18.28C2.81 17.18 3.85 16.69 4.76 16.26C5.13 16.08 5.68 15.83 5.8 15.65C5.87 15.47 5.75 14.86 5.68 14.43C5.5 13.45 5.32 12.29 5.99 11.37C6.66 10.45 7.82 10.27 8.8 10.15C9.17 10.09 9.84 10.02 10.03 9.9C10.15 9.78 10.21 9.11 10.27 8.74C10.39 7.76 10.58 6.6 11.49 5.93C11.8 5.62 12.35 5.5 12.96 5.5C13.45 5.5 13.94 5.56 14.43 5.68C14.8 5.74 15.16 5.81 15.47 5.81C15.59 5.81 15.65 5.81 15.65 5.81C15.77 5.68 16.08 5.13 16.26 4.76C16.69 3.91 17.18 2.81 18.28 2.44C18.53 2.38 18.71 2.32 18.96 2.32C19.75 2.32 20.48 2.69 21.22 3.11C21.58 3.3 22.14 3.6 22.38 3.6C22.56 3.54 22.99 3.11 23.24 2.81C23.91 2.07 24.76 1.22 25.87 1.22C27.03 1.22 27.82 2.07 28.5 2.81C28.74 3.11 29.23 3.54 29.41 3.6C29.6 3.6 30.15 3.3 30.51 3.11C31.25 2.75 31.98 2.32 32.78 2.32C33.02 2.32 33.27 2.38 33.45 2.44C34.55 2.81 35.04 3.85 35.47 4.76C35.65 5.13 35.9 5.68 36.08 5.81C36.08 5.81 36.14 5.81 36.26 5.81C36.57 5.81 36.94 5.74 37.3 5.68C37.79 5.56 38.34 5.5 38.83 5.5C39.44 5.5 40 5.62 40.42 5.99C41.34 6.66 41.52 7.82 41.65 8.8C41.71 9.17 41.77 9.84 41.89 10.02C42.01 10.15 42.69 10.21 43.05 10.27C44.03 10.39 45.19 10.58 45.87 11.49C46.54 12.41 46.35 13.51 46.17 14.55C46.11 14.92 45.99 15.59 46.05 15.77C46.17 15.9 46.72 16.2 47.09 16.39C47.94 16.81 49.05 17.3 49.41 18.41C49.78 19.44 49.23 20.48 48.74 21.34C48.56 21.71 48.25 22.26 48.25 22.5C48.31 22.69 48.74 23.11 49.05 23.36C49.72 24.03 50.64 24.89 50.64 25.99C50.64 27.15 49.78 27.95 49.05 28.62C48.74 28.86 48.31 29.35 48.25 29.54C48.25 29.72 48.56 30.27 48.74 30.64C49.23 31.55 49.78 32.53 49.41 33.57C49.05 34.67 48.01 35.16 47.09 35.59C46.72 35.77 46.17 36.02 46.05 36.2C45.99 36.39 46.11 37 46.17 37.42C46.35 38.41 46.54 39.57 45.87 40.48C45.19 41.4 44.03 41.58 43.05 41.71C42.69 41.77 42.01 41.83 41.83 41.95C41.71 42.07 41.65 42.75 41.58 43.11C41.46 44.09 41.28 45.25 40.36 45.93C39.93 46.23 39.44 46.42 38.77 46.42C38.28 46.42 37.79 46.35 37.3 46.23C36.94 46.17 36.57 46.11 36.26 46.11C36.14 46.11 36.08 46.11 36.08 46.11C35.96 46.23 35.65 46.78 35.47 47.15C35.04 48.01 34.55 49.11 33.45 49.48C33.21 49.54 33.02 49.6 32.78 49.6C31.98 49.6 31.25 49.23 30.51 48.8C30.15 48.62 29.6 48.31 29.35 48.31C29.17 48.37 28.74 48.8 28.5 49.11C27.89 49.66 27.03 50.58 25.87 50.58Z" fill="#FFFFFF" fill-opacity="1.000000" fill-rule="nonzero"/>
		<path id="Vector" d="M25.87 2.44C27.03 2.44 28.07 4.58 29.23 4.77C29.29 4.77 29.35 4.77 29.41 4.77C30.45 4.77 31.8 3.48 32.84 3.48C32.96 3.48 33.08 3.48 33.14 3.54C34.25 3.91 34.55 6.29 35.59 6.78C35.78 6.91 36.08 6.91 36.33 6.91C37.12 6.91 38.04 6.6 38.83 6.6C39.14 6.6 39.44 6.66 39.69 6.84C40.67 7.52 40.18 9.9 41.03 10.7C41.89 11.56 44.21 11.07 44.89 12.04C45.56 12.96 44.4 15.1 44.95 16.14C45.5 17.18 47.82 17.49 48.19 18.59C48.56 19.69 46.78 21.34 46.97 22.5C47.15 23.66 49.29 24.64 49.29 25.87C49.29 27.09 47.15 28.07 46.97 29.23C46.78 30.39 48.56 32.04 48.19 33.15C47.82 34.25 45.44 34.55 44.95 35.59C44.4 36.63 45.56 38.71 44.89 39.69C44.21 40.67 41.83 40.18 41.03 41.03C40.18 41.89 40.67 44.22 39.69 44.89C39.44 45.07 39.14 45.13 38.83 45.13C38.1 45.13 37.12 44.83 36.33 44.83C36.02 44.83 35.78 44.89 35.59 44.95C34.55 45.5 34.25 47.82 33.14 48.19C33.02 48.25 32.96 48.25 32.84 48.25C31.8 48.25 30.45 46.97 29.41 46.97C29.35 46.97 29.29 46.97 29.23 46.97C28.07 47.15 27.09 49.29 25.87 49.29C24.64 49.29 23.66 47.15 22.5 46.97C22.44 46.97 22.38 46.97 22.32 46.97C21.28 46.97 19.93 48.25 18.89 48.25C18.77 48.25 18.65 48.25 18.59 48.19C17.49 47.82 17.18 45.44 16.14 44.95C15.96 44.83 15.65 44.83 15.41 44.83C14.61 44.83 13.69 45.13 12.9 45.13C12.59 45.13 12.29 45.07 12.05 44.89C11.07 44.22 11.55 41.83 10.7 41.03C9.84 40.18 7.52 40.67 6.85 39.69C6.17 38.77 7.33 36.63 6.78 35.59C6.23 34.55 3.85 34.25 3.54 33.15C3.17 32.04 4.95 30.39 4.76 29.23C4.58 28.07 2.44 27.09 2.44 25.87C2.44 24.7 4.58 23.66 4.76 22.5C4.95 21.34 3.17 19.69 3.54 18.59C3.91 17.49 6.3 17.18 6.78 16.14C7.33 15.1 6.17 13.02 6.85 12.04C7.52 11.07 9.91 11.56 10.7 10.7C11.55 9.84 11.07 7.52 12.05 6.84C12.29 6.66 12.59 6.6 12.9 6.6C13.69 6.6 14.61 6.91 15.41 6.91C15.71 6.91 15.96 6.84 16.14 6.78C17.18 6.23 17.49 3.91 18.59 3.54C18.71 3.48 18.77 3.48 18.89 3.48C19.93 3.48 21.28 4.77 22.32 4.77C22.38 4.77 22.44 4.77 22.5 4.77C23.66 4.58 24.71 2.44 25.87 2.44ZM25.87 0C24.21 0 23.05 1.16 22.32 1.95C22.26 2.01 22.2 2.14 22.07 2.2C21.95 2.14 21.83 2.08 21.77 2.01C20.98 1.58 20.06 1.1 18.96 1.1C18.59 1.1 18.22 1.16 17.85 1.28C16.26 1.77 15.59 3.24 15.1 4.22C15.04 4.28 14.98 4.4 14.98 4.52C14.86 4.52 14.73 4.46 14.61 4.46C14.12 4.34 13.57 4.28 12.96 4.28C12.05 4.28 11.31 4.52 10.64 4.95C9.29 5.93 9.11 7.52 8.92 8.56C8.92 8.68 8.86 8.8 8.86 8.92C8.74 8.92 8.62 8.99 8.5 8.99C7.46 9.11 5.87 9.35 4.89 10.7C3.91 12.04 4.21 13.63 4.4 14.67C4.4 14.8 4.46 14.92 4.46 15.04C4.34 15.1 4.28 15.16 4.16 15.16C3.17 15.65 1.71 16.33 1.22 17.91C0.73 19.5 1.46 20.85 1.95 21.83C2.01 21.95 2.07 22.01 2.14 22.14C2.07 22.2 1.95 22.32 1.89 22.38C1.16 23.11 0 24.22 0 25.87C0 27.52 1.16 28.68 1.95 29.41C2.01 29.48 2.14 29.54 2.2 29.66C2.14 29.78 2.07 29.9 2.01 29.96C1.46 30.94 0.73 32.29 1.28 33.88C1.77 35.47 3.24 36.14 4.21 36.63C4.28 36.69 4.4 36.75 4.52 36.82C4.52 36.94 4.46 37.06 4.46 37.18C4.28 38.16 3.97 39.75 4.95 41.1C5.93 42.44 7.52 42.63 8.56 42.81C8.68 42.81 8.8 42.87 8.92 42.87C8.92 42.99 8.99 43.11 8.99 43.24C9.11 44.28 9.35 45.87 10.7 46.84C11.31 47.33 12.1 47.52 13.02 47.52C13.64 47.52 14.19 47.4 14.67 47.33C14.8 47.33 14.92 47.27 15.04 47.27C15.1 47.4 15.16 47.46 15.16 47.58C15.65 48.56 16.33 50.03 17.92 50.51C18.28 50.64 18.65 50.7 19.01 50.7C20.12 50.7 21.1 50.21 21.83 49.78C21.95 49.72 22.01 49.66 22.14 49.6C22.2 49.66 22.32 49.78 22.38 49.84C23.12 50.64 24.28 51.8 25.93 51.8C27.58 51.8 28.74 50.64 29.48 49.84C29.54 49.78 29.6 49.66 29.72 49.6C29.84 49.66 29.96 49.72 30.03 49.78C30.82 50.21 31.74 50.7 32.84 50.7C33.21 50.7 33.57 50.64 33.94 50.51C35.53 50.03 36.2 48.56 36.69 47.58C36.75 47.52 36.82 47.4 36.82 47.27C36.94 47.27 37.06 47.33 37.18 47.33C37.67 47.4 38.28 47.52 38.83 47.52C39.75 47.52 40.48 47.27 41.16 46.84C42.5 45.87 42.69 44.28 42.87 43.24C42.87 43.11 42.93 42.99 42.93 42.87C43.05 42.87 43.17 42.81 43.3 42.81C44.34 42.69 45.93 42.44 46.91 41.1C47.89 39.75 47.58 38.16 47.4 37.12C47.4 37 47.33 36.88 47.33 36.75C47.46 36.69 47.52 36.63 47.64 36.63C48.62 36.14 50.08 35.47 50.58 33.88C51.07 32.29 50.33 30.94 49.84 29.96C49.78 29.84 49.72 29.78 49.66 29.66C49.72 29.6 49.84 29.48 49.91 29.41C50.7 28.68 51.86 27.52 51.86 25.87C51.86 24.22 50.7 23.05 49.91 22.32C49.84 22.26 49.72 22.2 49.66 22.08C49.72 21.95 49.78 21.83 49.84 21.77C50.39 20.79 51.13 19.44 50.58 17.85C50.08 16.26 48.62 15.59 47.64 15.1C47.58 15.04 47.46 14.98 47.33 14.98C47.33 14.86 47.4 14.74 47.4 14.61C47.58 13.57 47.89 11.98 46.91 10.64C45.93 9.29 44.34 9.11 43.3 8.92C43.17 8.92 43.05 8.86 42.93 8.86C42.93 8.74 42.87 8.62 42.87 8.5C42.75 7.46 42.5 5.87 41.16 4.89C40.55 4.4 39.75 4.22 38.83 4.22C38.22 4.22 37.67 4.34 37.18 4.4C37.06 4.4 36.94 4.46 36.82 4.46C36.75 4.4 36.69 4.28 36.63 4.22C36.14 3.24 35.47 1.77 33.88 1.28C33.51 1.16 33.14 1.1 32.78 1.1C31.68 1.1 30.7 1.58 29.96 2.01C29.84 2.08 29.78 2.14 29.66 2.2C29.6 2.14 29.48 2.01 29.41 1.95C28.68 1.16 27.58 0 25.87 0Z" fill="#060F42" fill-opacity="1.000000" fill-rule="nonzero"/>
		<path id="Vector" d="M42.07 25.87C42.07 34.86 34.86 42.08 25.87 42.08C16.94 42.08 9.66 34.8 9.66 25.87C9.66 16.94 16.94 9.66 25.87 9.66C34.86 9.66 42.07 16.94 42.07 25.87Z" fill="#FFFFFF" fill-opacity="1.000000" fill-rule="nonzero"/>
		<path id="Vector" d="M25.87 43.3C16.26 43.3 8.44 35.47 8.44 25.87C8.44 16.26 16.26 8.43 25.87 8.43C35.47 8.43 43.3 16.26 43.3 25.87C43.3 35.47 35.47 43.3 25.87 43.3ZM25.87 10.88C17.61 10.88 10.88 17.61 10.88 25.87C10.88 34.12 17.61 40.85 25.87 40.85C34.12 40.85 40.85 34.12 40.85 25.87C40.85 17.61 34.12 10.88 25.87 10.88Z" fill="#060F42" fill-opacity="1.000000" fill-rule="nonzero"/>
		<path id="Vector" d="M26.77 19.27L28.33 22.35C28.47 22.64 28.75 22.84 29.07 22.89L32.51 23.42C33.32 23.55 33.64 24.55 33.05 25.12L30.58 27.52C30.35 27.75 30.24 28.08 30.3 28.4L30.86 31.83C31 32.64 30.14 33.26 29.41 32.88L26.33 31.25C26.04 31.1 25.69 31.1 25.4 31.25L22.35 32.86C21.62 33.25 20.75 32.63 20.9 31.81L21.5 28.41C21.55 28.08 21.44 27.75 21.21 27.52L18.75 25.12C18.15 24.55 18.47 23.55 19.29 23.42L22.72 22.89C23.05 22.84 23.32 22.63 23.47 22.34L24.98 19.28C25.35 18.54 26.4 18.54 26.77 19.27Z" fill="#FFCD1B" fill-opacity="1.000000" fill-rule="nonzero"/>
		<path id="Vector" d="M31.04 35.06L26.4 32.6C26.1 32.44 25.75 32.44 25.46 32.6L20.82 35.06C20.09 35.45 19.23 34.83 19.37 34.01L20.27 28.84C20.33 28.51 20.22 28.17 19.98 27.94L16.16 24.29C15.56 23.72 15.89 22.7 16.71 22.58L21.91 21.84C22.25 21.8 22.53 21.59 22.67 21.29L24.98 16.52C25.34 15.77 26.41 15.76 26.78 16.51L29.12 21.24C29.26 21.53 29.55 21.74 29.87 21.78L35.1 22.52C35.92 22.64 36.25 23.65 35.65 24.23L31.87 27.89C31.64 28.11 31.53 28.45 31.58 28.77L32.49 34.01C32.63 34.83 31.77 35.45 31.04 35.06ZM21.37 25.99L22.55 27.15C22.79 27.38 22.9 27.71 22.84 28.04L22.56 29.59C22.41 30.41 23.28 31.04 24.01 30.65L25.4 29.91C25.69 29.75 26.04 29.75 26.34 29.91L27.75 30.66C28.48 31.05 29.34 30.44 29.21 29.62L28.95 28.03C28.9 27.71 29 27.38 29.24 27.16L30.42 25.99C31.01 25.41 30.69 24.41 29.87 24.29L28.28 24.05C27.96 24 27.68 23.8 27.53 23.5L26.83 22.07C26.46 21.32 25.4 21.32 25.03 22.07L24.33 23.5C24.18 23.8 23.9 24 23.57 24.05L21.93 24.29C21.11 24.41 20.78 25.41 21.37 25.99Z" fill="#060F42" fill-opacity="1.000000" fill-rule="nonzero"/>
	</g>
</svg>
