<svg width="50.000000" height="50.000000" viewBox="0 0 50 50" fill="none" xmlns="http://www.w3.org/2000/svg" xmlns:xlink="http://www.w3.org/1999/xlink">
	<desc>
			Created with Pixso.
	</desc>
	<defs/>
	<path id="Vector" d="M37.9 8.55L42.98 3.46C40.21 2.23 36.82 2.69 34.43 5.08C32.35 7.16 31.66 10.16 32.51 12.71L12.71 32.5C10.09 31.74 7.16 32.35 5.08 34.43C2.77 36.74 2.23 40.21 3.46 42.98L8.55 37.9L11.71 38.44L12.25 41.6L7.24 46.6C9.93 47.76 13.25 47.22 15.56 44.91C17.64 42.83 18.33 39.83 17.48 37.28L37.28 17.48C39.9 18.25 42.83 17.64 44.91 15.56C47.14 13.32 47.76 9.93 46.6 7.24L41.6 12.24L38.44 11.7L37.9 8.55Z" stroke="#060F42" stroke-opacity="1.000000" stroke-width="2.300000"/>
	<path id="Vector" d="M10.78 6.7L10.47 10.4L6.7 10.78L2.92 5.47L5.46 2.92L10.78 6.7Z" fill="#01579B" fill-opacity="1.000000" fill-rule="nonzero"/>
	<path id="Vector" d="M10.47 10.4L6.7 10.78L2.92 5.47L5.46 2.92L10.78 6.7L10.47 10.4Z" stroke="#01579B" stroke-opacity="1.000000" stroke-width="2.300000"/>
	<path id="Vector" d="M10.47 10.4L24.88 25.26" stroke="#01579B" stroke-opacity="1.000000" stroke-width="2.300000"/>
	<path id="Vector" d="M23.15 26.69L26.46 23.38C26.82 23.01 27.41 23.01 27.77 23.38C28.13 23.74 28.13 24.33 27.77 24.69L24.46 28C24.09 28.36 23.51 28.36 23.15 28C22.78 27.64 22.78 27.05 23.15 26.69Z" fill="#FFCD1B" fill-opacity="1.000000" fill-rule="evenodd"/>
	<path id="Vector" d="M25.29 29.63L29.4 25.52C30.18 24.74 31.44 24.74 32.23 25.52L45.81 39.1C46.59 39.89 46.59 41.15 45.81 41.93L41.7 46.04C40.92 46.82 39.66 46.82 38.87 46.04L25.29 32.46C24.51 31.67 24.51 30.41 25.29 29.63Z" fill="#FFCD1B" fill-opacity="1.000000" fill-rule="evenodd"/>
	<path id="Vector" d="M23.05 28.8L28.57 23.28C28.96 22.89 29.59 22.89 29.98 23.28L30.1 23.4C30.5 23.79 30.5 24.43 30.1 24.82L24.58 30.34C24.19 30.73 23.56 30.73 23.17 30.34L23.05 30.21C22.66 29.82 22.66 29.19 23.05 28.8Z" fill="#060F42" fill-opacity="1.000000" fill-rule="evenodd"/>
	<path id="Vector" d="" fill="#FFCD1B" fill-opacity="1.000000" fill-rule="nonzero"/>
	<path id="Vector" d="M27.42 29.96L41.6 44.14" stroke="#060F42" stroke-opacity="1.000000" stroke-width="2.300000"/>
	<path id="Vector" d="" fill="#FFCD1B" fill-opacity="1.000000" fill-rule="nonzero"/>
	<path id="Vector" d="M29.73 27.65L43.91 41.83" stroke="#060F42" stroke-opacity="1.000000" stroke-width="2.300000"/>
</svg>
