<svg width="24.000000" height="24.000000" viewBox="0 0 24 24" fill="none" xmlns="http://www.w3.org/2000/svg" xmlns:xlink="http://www.w3.org/1999/xlink">
	<desc>
			Created with Pixso.
	</desc>
	<defs/>
	<rect id="Frame 7779" rx="0.000000" transform="translate(2.500000 2.500000)" fill="#FFFFFF" fill-opacity="0"/>
	<rect id="Rectangle 292" x="2.750000" y="15.402344" rx="1.000000" width="5.846966" height="5.846966" stroke="#F4F8FB" stroke-opacity="1.000000" stroke-width="1.500000"/>
	<rect id="Rectangle 294" x="2.750000" y="4.789062" rx="1.000000" width="5.846966" height="5.846966" stroke="#F4F8FB" stroke-opacity="1.000000" stroke-width="1.500000"/>
	<rect id="Rectangle 293" x="13.363281" y="15.402344" rx="1.000000" width="5.846967" height="5.846966" stroke="#F4F8FB" stroke-opacity="1.000000" stroke-width="1.500000"/>
	<path id="Rectangle 295" d="M11.54 6.87L15.71 2.7C16.1 2.31 16.73 2.31 17.12 2.7L21.29 6.87C21.68 7.26 21.68 7.89 21.29 8.28L17.12 12.44C16.73 12.83 16.1 12.83 15.71 12.44L11.54 8.28C11.15 7.89 11.15 7.26 11.54 6.87ZM16.41 4.12L12.96 7.57L16.41 11.03L19.87 7.57L16.41 4.12Z" fill="#F4F8FB" fill-opacity="1.000000" fill-rule="evenodd"/>
</svg>
