<svg width="40.000000" height="40.000000" viewBox="0 0 40 40" fill="none" xmlns="http://www.w3.org/2000/svg" xmlns:xlink="http://www.w3.org/1999/xlink">
	<desc>
			Created with Pixso.
	</desc>
	<defs>
		<clipPath id="clip7_106868">
			<rect id="Component 10" rx="0.000000" width="39.000000" height="39.000000" transform="translate(0.500000 0.500000)" fill="white" fill-opacity="0"/>
		</clipPath>
	</defs>
	<!-- <rect id="Component 10" rx="0.000000" width="39.000000" height="39.000000" transform="translate(0.500000 0.500000)" fill="#FFFFFF" fill-opacity="0"/> -->
	<g clip-path="url(#clip7_106868)">
		<!-- <rect id="Shape" rx="0.000000" width="39.000000" height="39.000000" transform="translate(0.500000 0.500000)" fill="#FFFFFF" fill-opacity="0"/> -->
		<path id="vector" d="M20 9.64L18.14 7.8C16.33 6 13.87 5 11.31 5C8.75 5 6.3 6 4.49 7.8C2.68 9.58 1.66 12.02 1.66 14.55C1.66 17.08 2.68 19.51 4.49 21.31L6.35 23.15L20 36.66L33.64 23.15L35.5 21.31C36.4 20.42 37.11 19.37 37.6 18.21C38.08 17.05 38.33 15.81 38.33 14.55C38.33 13.3 38.08 12.05 37.6 10.89C37.11 9.73 36.4 8.68 35.5 7.8C34.61 6.91 33.54 6.2 32.37 5.72C31.2 5.24 29.94 5 28.68 5C27.41 5 26.16 5.24 24.99 5.72C23.82 6.2 22.75 6.91 21.85 7.8L20 9.64ZM20 33.85L32.24 21.73L34.1 19.89C34.48 19.51 34.81 19.1 35.1 18.67C35.35 18.28 35.57 17.87 35.75 17.44C35.95 16.96 36.1 16.48 36.19 15.99C36.28 15.52 36.33 15.04 36.33 14.55C36.33 14.06 36.28 13.58 36.19 13.12C36.1 12.62 35.95 12.14 35.75 11.67C35.57 11.23 35.35 10.82 35.09 10.43C34.81 10 34.48 9.59 34.1 9.22C33.75 8.88 33.39 8.58 33 8.32C32.57 8.02 32.1 7.78 31.61 7.57C31.16 7.39 30.69 7.24 30.21 7.15C29.71 7.05 29.2 7 28.68 7C28.16 7 27.65 7.05 27.15 7.15C26.67 7.24 26.2 7.39 25.75 7.57C25.25 7.78 24.78 8.03 24.35 8.32C23.96 8.58 23.6 8.88 23.26 9.21L21.4 11.06C21.01 11.44 20.55 11.64 20 11.64C19.45 11.64 18.98 11.44 18.59 11.06L16.73 9.22C16 8.49 15.19 7.94 14.31 7.57C13.39 7.19 12.39 7 11.31 7C10.23 7 9.23 7.19 8.32 7.57C7.43 7.94 6.63 8.49 5.9 9.22C5.14 9.97 4.57 10.8 4.2 11.71C3.84 12.58 3.66 13.53 3.66 14.55C3.66 15.57 3.84 16.52 4.2 17.39C4.57 18.3 5.14 19.13 5.9 19.89L7.76 21.73L20 33.85Z"  fill-opacity="1.000000" fill-rule="evenodd"/>
	</g>
</svg>
