<svg width="24.000000" height="24.000000" viewBox="0 0 24 24" fill="none" xmlns="http://www.w3.org/2000/svg" xmlns:xlink="http://www.w3.org/1999/xlink">
	<desc>
			Created with Pixso.
	</desc>
	<defs/>
	<rect id="Shape" rx="0.000000" width="23.000000" height="23.000000" transform="translate(0.500000 0.500000)" fill="#FFFFFF" fill-opacity="0"/>
	<path id="Vector" d="M20 13.8L20 20L16.57 20L16.57 14.22C16.57 12.77 16.07 11.78 14.83 11.78C13.88 11.78 13.32 12.44 13.07 13.09C12.98 13.32 12.96 13.64 12.96 13.97L12.96 20L9.53 20C9.53 20 9.57 10.21 9.53 9.2L12.96 9.2L12.96 10.73C12.95 10.74 12.94 10.75 12.93 10.76L12.96 10.76L12.96 10.73C13.41 10 14.23 8.95 16.05 8.95C18.3 8.95 20 10.49 20 13.8ZM5.94 4C4.76 4 4 4.8 4 5.86C4 6.9 4.74 7.73 5.89 7.73L5.91 7.73C7.11 7.73 7.85 6.9 7.85 5.86C7.83 4.8 7.11 4 5.94 4ZM4.2 20L7.63 20L7.63 9.2L4.2 9.2L4.2 20Z" fill="#060F42" fill-opacity="1.000000" fill-rule="nonzero"/>
</svg>
