<svg 
	width="159.417969" 
	height="40.767578" 
	viewBox="0 0 159.418 40.7676" 
	fill="none" 
	xmlns="http://www.w3.org/2000/svg" 
	xmlns:xlink="http://www.w3.org/1999/xlink">
	<defs/>
	<path id="Vector" 
		d="M34.5 39.13L52.22 39.13L60.11 11.16L42.39 11.16L34.5 39.13ZM40.57 27.6L52.38 27.6L54.03 22.69L42.23 22.69L40.57 27.6Z"  
		fill-opacity="1.000000" 
		fill-rule="evenodd"/>
	<path id="Vector" 
		d="M12.19 17.38L5.42 19.53L26.91 40.76L32.21 39.12L41.92 5L40.62 0L25.67 3.75L26.51 8.52L35.45 6.27L28.12 34.19L12.19 17.38Z"  
		fill-opacity="1.000000" 
		fill-rule="evenodd"/>
	<path id="Vector" 
		d="M24.67 22.56L26.46 16.89L16.39 6.07L0.04 10.16L1.26 15.35L14.26 11.71L24.67 22.56Z" 
		fill-opacity="1.000000" 
		fill-rule="evenodd"/>
	<path id="Vector" 
		d="M26.46 16.89L16.39 6.07L0.04 10.16L1.26 15.35L14.26 11.71L24.67 22.56L26.46 16.89Z" 
		stroke="black" 
		stroke-opacity="1.000000" 
		stroke-width="0.076200"/>
	<path id="Vector" 
		d="M54.72 39.13L151.69 39.12L159.41 11.16L62.6 11.16L54.72 39.13ZM134.48 36.92L134.48 13.37L148.98 13.37C156.73 15.31 154.22 28.17 148.98 28.55L142.31 28.58L139.84 25.49L139.84 36.92L134.48 36.92ZM146.96 18.33C148.89 18.27 150.25 23.14 146.96 23.59L139.84 23.51L139.84 18.36L146.96 18.33ZM109.02 36.89L103.18 36.89L103.18 13.37L113.21 13.37L118.03 27.63L122.84 13.37L132.89 13.37L132.89 36.89L127.04 36.89L126.98 19.46L121.01 36.92L118.03 36.92L115.04 36.92L109.08 19.46L109.02 36.89ZM101.95 26.15C101.95 28.97 101.08 32.34 99.08 34.17C97.08 36 94.46 36.92 91.24 36.92C87.99 36.92 85.36 36 83.34 34.17C81.32 32.34 80.52 29.03 80.52 26.21L80.52 24.19C80.52 21.38 81.32 17.95 83.33 16.12C85.34 14.28 87.96 13.37 91.2 13.37C94.42 13.37 97.03 14.28 99.05 16.12C101.07 17.95 101.95 21.32 101.95 24.13L101.95 26.15ZM96.15 24.26C96.15 22.62 95.72 21.28 94.85 20.23C94 19.18 92.78 18.66 91.2 18.66C89.6 18.66 88.37 19.18 87.51 20.22C86.67 21.26 86.24 22.61 86.24 24.26L86.24 25.93C86.24 27.59 86.67 28.95 87.53 29.99C88.4 31.04 89.64 31.56 91.24 31.56C92.8 31.56 94.01 31.04 94.87 29.99C95.72 28.95 96.15 27.59 96.15 25.93L96.15 24.26ZM80.57 36.92L80.57 31.23L69.41 31.23C67.24 31.23 64.15 21.85 69.41 18.66L77.88 18.59L80.76 13.37L68.47 13.37C60.6 13.11 54.76 33.84 68.47 36.9L80.57 36.92Z" 
		fill-opacity="1.000000" 
		fill-rule="evenodd"/>
</svg>
