<svg width="124.046875" height="32.000000" viewBox="0 0 124.047 32" fill="none" xmlns="http://www.w3.org/2000/svg" xmlns:xlink="http://www.w3.org/1999/xlink">
	<desc>
			Created with Pixso.
	</desc>
	<defs/>
	<rect id="Logo" rx="0.000000" width="123.000000" height="31.000000" transform="translate(0.546875 0.500000)" fill="#FFFFFF" fill-opacity="0"/>
	<path id="Vector" d="M26.85 30.71L40.64 30.71L46.78 8.76L32.99 8.76L26.85 30.71ZM31.58 21.66L40.76 21.66L42.05 17.81L32.87 17.81L31.58 21.66Z" fill="#FFFFFF" fill-opacity="1.000000" fill-rule="evenodd"/>
	<path id="Vector" d="M9.5 13.64L4.23 15.33L20.95 32L25.08 30.71L32.63 3.92L31.62 0L19.99 2.95L20.64 6.69L27.59 4.92L21.89 26.83L9.5 13.64Z" fill="#FFFFFF" fill-opacity="1.000000" fill-rule="evenodd"/>
	<path id="Vector" d="M19.21 17.71L20.59 13.26L12.76 4.76L0.04 7.98L0.99 12.05L11.1 9.19L19.21 17.71Z" fill="#FFFFFF" fill-opacity="1.000000" fill-rule="evenodd"/>
	<path id="Vector" d="M20.59 13.26L12.76 4.76L0.04 7.98L0.99 12.05L11.1 9.19L19.21 17.71L20.59 13.26Z" stroke="#FFFFFF" stroke-opacity="1.000000" stroke-width="0.076200"/>
	<path id="Vector" d="M42.58 30.71L118.03 30.7L124.04 8.75L48.71 8.75L42.58 30.71ZM104.64 28.97L104.64 10.49L115.92 10.49C121.96 12.02 120 22.1 115.92 22.41L110.73 22.43L108.81 20.01L108.81 28.98L104.64 28.97ZM114.35 14.39C115.85 14.34 116.91 18.16 114.35 18.51L108.81 18.46L108.81 14.41L114.35 14.39ZM84.83 28.95L80.29 28.95L80.29 10.49L88.1 10.49L91.84 21.69L95.58 10.49L103.4 10.49L103.4 28.95L98.85 28.95L98.8 15.27L94.16 28.98L91.84 28.98L89.52 28.98L84.87 15.27L84.83 28.95ZM79.33 20.52C79.33 22.73 78.65 25.38 77.1 26.82C75.54 28.26 73.51 28.98 71 28.98C68.47 28.98 66.42 28.26 64.85 26.82C63.28 25.38 62.66 22.78 62.66 20.57L62.66 18.98C62.66 16.78 63.28 14.08 64.84 12.65C66.41 11.21 68.45 10.49 70.97 10.49C73.47 10.49 75.51 11.21 77.08 12.65C78.65 14.08 79.33 16.73 79.33 18.94L79.33 20.52ZM74.82 19.04C74.82 17.75 74.48 16.7 73.81 15.88C73.14 15.05 72.19 14.64 70.97 14.64C69.72 14.64 68.76 15.05 68.1 15.87C67.44 16.69 67.11 17.75 67.11 19.04L67.11 20.35C67.11 21.66 67.44 22.72 68.11 23.54C68.78 24.36 69.75 24.77 71 24.77C72.21 24.77 73.15 24.36 73.82 23.54C74.48 22.72 74.82 21.66 74.82 20.35L74.82 19.04ZM62.69 28.98L62.69 24.51L54.01 24.51C52.32 24.51 49.92 17.15 54.01 14.64L60.6 14.59L62.85 10.49L53.28 10.49C47.16 10.29 42.61 26.56 53.28 28.96L62.69 28.98Z" fill="#FFFFFF" fill-opacity="1.000000" fill-rule="evenodd"/>
</svg>
