<svg width="22.000000" height="22.000000" viewBox="0 0 22 22" fill="none" xmlns="http://www.w3.org/2000/svg" xmlns:xlink="http://www.w3.org/1999/xlink">
	<desc>
			Created with Pixso.
	</desc>
	<defs>
		<clipPath id="clip9_7888">
			<rect id="social icon/telegram/M" rx="0.000000" width="21.000000" height="21.000000" transform="translate(0.500000 0.500000)" fill="white" fill-opacity="0"/>
		</clipPath>
	</defs>
	<rect id="social icon/telegram/M" rx="0.000000" width="21.000000" height="21.000000" transform="translate(0.500000 0.500000)" fill="#FFFFFF" fill-opacity="0"/>
	<g clip-path="url(#clip9_7888)">
		<path id="Vector" d="M16.48 5.73C16.92 5.56 17.37 5.95 17.28 6.41L15.31 15.81C15.22 16.25 14.7 16.45 14.34 16.18L11.37 14L9.86 15.55C9.59 15.82 9.13 15.71 9.02 15.35L7.92 11.88L5 11.01C4.62 10.9 4.59 10.37 4.96 10.22L16.48 5.73ZM15.04 7.82C15.17 7.71 15.02 7.51 14.87 7.6L8.56 11.51C8.44 11.58 8.39 11.72 8.43 11.84L9.3 15.63C9.31 15.68 9.39 15.68 9.4 15.62L9.59 12.73C9.6 12.66 9.64 12.6 9.69 12.55L15.04 7.82Z" fill="#D9D9D9" fill-opacity="1.000000" fill-rule="nonzero"/>
		<path id="Vector" d="M14.87 7.6C15.02 7.5 15.17 7.71 15.04 7.82L9.69 12.55C9.64 12.6 9.6 12.66 9.6 12.73L9.4 15.62C9.4 15.68 9.31 15.68 9.3 15.63L8.43 11.84C8.39 11.72 8.44 11.58 8.56 11.51L14.87 7.6Z" fill="#9EC2E5" fill-opacity="1.000000" fill-rule="nonzero"/>
		<path id="Vector" d="M9.14 15.69C9.01 15.64 8.89 15.53 8.85 15.37L7.8 11.9L4.99 11.03C4.62 10.91 4.6 10.38 4.96 10.23L16.01 5.73C16.28 5.62 16.56 5.75 16.7 5.97C16.67 5.93 16.64 5.89 16.61 5.86L9.11 12.25L9.11 12.53L9.07 12.5L9.11 14.26L9.11 15.68C9.12 15.68 9.13 15.69 9.14 15.69L9.14 15.69L9.14 15.69Z" fill="#D9D9D9" fill-opacity="1.000000" fill-rule="nonzero"/>
		<path id="Vector" d="M9.82 15.58C9.8 15.59 9.79 15.6 9.78 15.61L9.78 15.61C9.79 15.6 9.8 15.59 9.82 15.58Z" fill="#DADDE0" fill-opacity="1.000000" fill-rule="nonzero"/>
		<path id="Vector" d="M9.78 15.61L9.78 15.61C9.78 15.61 9.78 15.61 9.78 15.61C9.78 15.61 9.78 15.61 9.78 15.61Z" fill="#DADDE0" fill-opacity="1.000000" fill-rule="nonzero"/>
		<path id="Vector" d="M9.69 15.66C9.72 15.65 9.75 15.63 9.78 15.61C9.75 15.63 9.72 15.65 9.69 15.66Z" fill="#DADDE0" fill-opacity="1.000000" fill-rule="nonzero"/>
		<path id="Vector" d="M9.45 15.69C9.51 15.7 9.58 15.7 9.64 15.68C9.6 15.69 9.55 15.7 9.5 15.7C9.49 15.7 9.47 15.7 9.46 15.7C9.46 15.7 9.45 15.7 9.45 15.69Z" fill="#DADDE0" fill-opacity="1.000000" fill-rule="nonzero"/>
		<path id="Vector" d="M9.5 15.7C9.48 15.7 9.47 15.7 9.46 15.69C9.47 15.7 9.48 15.7 9.5 15.7Z" fill="#FFFFFF" fill-opacity="1.000000" fill-rule="nonzero"/>
		<path id="Vector" d="M9.45 15.69C9.45 15.69 9.46 15.69 9.46 15.69C9.44 15.69 9.43 15.69 9.41 15.69C9.42 15.69 9.44 15.69 9.45 15.69Z" fill="#FFFFFF" fill-opacity="1.000000" fill-rule="nonzero"/>
		<path id="Vector" d="M9.45 15.69C9.44 15.69 9.42 15.69 9.41 15.69C9.41 15.69 9.4 15.69 9.4 15.68C9.41 15.69 9.43 15.69 9.45 15.69Z" fill="#DADDE0" fill-opacity="1.000000" fill-rule="nonzero"/>
		<path id="Vector" d="M9.34 15.67C9.36 15.67 9.37 15.68 9.39 15.68C9.39 15.68 9.38 15.68 9.37 15.68C9.37 15.68 9.37 15.68 9.36 15.67C9.36 15.67 9.35 15.67 9.34 15.67Z" fill="#DADDE0" fill-opacity="1.000000" fill-rule="nonzero"/>
		<path id="Vector" d="M9.37 15.68C9.37 15.68 9.38 15.68 9.39 15.68C9.38 15.68 9.37 15.68 9.37 15.68Z" fill="#FFFFFF" fill-opacity="1.000000" fill-rule="nonzero"/>
		<path id="Vector" d="M9.34 15.67C9.35 15.67 9.35 15.68 9.36 15.68C9.35 15.67 9.34 15.67 9.33 15.67C9.33 15.67 9.33 15.67 9.34 15.67Z" fill="#FFFFFF" fill-opacity="1.000000" fill-rule="nonzero"/>
		<path id="Vector" d="M9.34 15.67C9.34 15.67 9.33 15.67 9.33 15.67C9.33 15.67 9.33 15.67 9.33 15.67L9.33 15.66C9.33 15.67 9.33 15.67 9.34 15.67Z" fill="#DADDE0" fill-opacity="1.000000" fill-rule="nonzero"/>
		<path id="Vector" d="M9.29 14.24L9.33 15.66C9.32 15.66 9.3 15.66 9.29 15.65L9.29 14.24Z" fill="#D1D1D1" fill-opacity="1.000000" fill-rule="nonzero"/>
		<path id="Vector" d="M9.29 12.51L9.29 14.24L9.25 12.48L9.29 12.51Z" fill="#DADDE0" fill-opacity="1.000000" fill-rule="nonzero"/>
		<path id="Vector" d="M15.04 7.82L9.69 12.55C9.64 12.6 9.6 12.66 9.6 12.73L9.4 15.62C9.4 15.68 9.31 15.68 9.3 15.63L8.43 11.84C8.39 11.72 8.44 11.58 8.56 11.51L14.87 7.6C15.02 7.5 15.17 7.71 15.04 7.82Z" fill="#ADBCC9" fill-opacity="1.000000" fill-rule="nonzero"/>
	</g>
</svg>
