<svg width="22.000000" height="22.000000" viewBox="0 0 22 22" fill="none" xmlns="http://www.w3.org/2000/svg" xmlns:xlink="http://www.w3.org/1999/xlink">
	<desc>
			Created with Pixso.
	</desc>
	<defs>
		<clipPath id="clip9_7865">
			<rect id="social icon/viber/M" rx="0.000000" width="21.000000" height="21.000000" transform="translate(0.500000 0.500000)" fill="white" fill-opacity="0"/>
		</clipPath>
	</defs>
	<rect id="social icon/viber/M" rx="0.000000" width="21.000000" height="21.000000" transform="translate(0.500000 0.500000)" fill="#FFFFFF" fill-opacity="0"/>
	<g clip-path="url(#clip9_7865)">
		<path id="Vector" d="M16.82 7.73L16.81 7.71C16.52 6.52 15.19 5.25 13.98 4.99L13.96 4.98C12 4.61 10 4.61 8.03 4.98L8.02 4.99C6.8 5.25 5.48 6.52 5.18 7.71L5.18 7.73C4.82 9.39 4.82 11.07 5.18 12.73L5.18 12.74C5.46 13.88 6.69 15.1 7.86 15.43L7.86 16.76C7.86 17.24 8.44 17.47 8.78 17.13L10.12 15.73C10.41 15.75 10.71 15.76 11 15.76C11.99 15.76 12.98 15.66 13.96 15.48L13.98 15.47C15.19 15.21 16.52 13.93 16.81 12.74L16.82 12.73C17.18 11.07 17.18 9.39 16.82 7.73ZM15.75 12.49C15.56 13.26 14.55 14.23 13.75 14.41C12.71 14.6 11.65 14.69 10.6 14.66C10.57 14.66 10.55 14.67 10.54 14.68C10.39 14.84 9.56 15.69 9.56 15.69L8.51 16.76C8.44 16.84 8.3 16.79 8.3 16.68L8.3 14.48C8.3 14.44 8.28 14.41 8.24 14.41C8.24 14.41 8.24 14.41 8.24 14.41C7.44 14.23 6.44 13.26 6.24 12.49C5.91 10.99 5.91 9.47 6.24 7.97C6.44 7.19 7.44 6.23 8.24 6.05C10.07 5.7 11.92 5.7 13.75 6.05C14.55 6.23 15.56 7.19 15.75 7.97C16.08 9.47 16.08 10.99 15.75 12.49Z" fill="#D9D9D9" fill-opacity="1.000000" fill-rule="nonzero"/>
		<path id="Vector" d="M12.73 13.5C12.61 13.47 12.5 13.44 12.39 13.4C11.26 12.93 10.22 12.33 9.4 11.4C8.93 10.87 8.57 10.28 8.26 9.65C8.11 9.35 7.99 9.04 7.86 8.74C7.75 8.46 7.92 8.17 8.09 7.95C8.26 7.76 8.48 7.6 8.71 7.49C8.89 7.41 9.07 7.46 9.2 7.61C9.49 7.94 9.75 8.29 9.97 8.68C10.1 8.92 10.06 9.21 9.82 9.37C9.76 9.41 9.71 9.45 9.66 9.5C9.61 9.54 9.57 9.58 9.53 9.63C9.48 9.73 9.47 9.84 9.51 9.94C9.8 10.75 10.3 11.38 11.11 11.71C11.24 11.77 11.37 11.83 11.52 11.81C11.77 11.78 11.85 11.51 12.03 11.37C12.2 11.23 12.42 11.22 12.6 11.34C12.79 11.46 12.97 11.58 13.14 11.71C13.32 11.83 13.5 11.96 13.66 12.1C13.81 12.24 13.86 12.41 13.78 12.6C13.62 12.94 13.39 13.22 13.05 13.4C12.95 13.45 12.84 13.47 12.73 13.5Z" fill="#D9D9D9" fill-opacity="1.000000" fill-rule="nonzero"/>
		<path id="Vector" d="M11 7.1C12.47 7.14 13.68 8.12 13.94 9.58C13.99 9.83 14 10.08 14.02 10.33C14.03 10.44 13.97 10.54 13.86 10.54C13.74 10.54 13.69 10.44 13.68 10.34C13.66 10.13 13.65 9.92 13.62 9.71C13.47 8.61 12.6 7.7 11.5 7.51C11.34 7.48 11.17 7.47 11 7.45C10.9 7.44 10.76 7.44 10.74 7.31C10.72 7.2 10.81 7.11 10.91 7.1C10.94 7.1 10.97 7.1 11 7.1Z" fill="#D9D9D9" fill-opacity="1.000000" fill-rule="nonzero"/>
		<path id="Vector" d="M13.24 10.01C13.24 10.03 13.23 10.07 13.23 10.11C13.19 10.26 12.96 10.28 12.91 10.13C12.89 10.08 12.89 10.03 12.89 9.99C12.89 9.67 12.82 9.36 12.67 9.09C12.5 8.81 12.26 8.58 11.97 8.43C11.79 8.35 11.6 8.29 11.41 8.26C11.32 8.25 11.24 8.24 11.16 8.23C11.05 8.21 11 8.15 11 8.05C11.01 7.95 11.08 7.89 11.18 7.89C11.52 7.91 11.85 7.98 12.15 8.14C12.76 8.47 13.11 8.98 13.21 9.66C13.21 9.69 13.22 9.72 13.22 9.75C13.23 9.83 13.23 9.91 13.24 10.01Z" fill="#D9D9D9" fill-opacity="1.000000" fill-rule="nonzero"/>
		<path id="Vector" d="M12.32 9.97C12.2 9.97 12.13 9.91 12.12 9.79C12.11 9.71 12.1 9.63 12.08 9.56C12.05 9.41 11.97 9.27 11.84 9.17C11.78 9.13 11.71 9.1 11.64 9.08C11.55 9.05 11.46 9.06 11.37 9.04C11.27 9.01 11.21 8.93 11.23 8.84C11.24 8.76 11.32 8.69 11.42 8.7C11.99 8.74 12.39 9.04 12.45 9.71C12.46 9.75 12.46 9.81 12.45 9.85C12.43 9.93 12.38 9.97 12.32 9.97Z" fill="#D9D9D9" fill-opacity="1.000000" fill-rule="nonzero"/>
		<path id="Vector" d="" fill="#FFFFFF" fill-opacity="1.000000" fill-rule="nonzero"/>
		<path id="Vector" d="M11 7.1C11 7.1 11 7.1 11 7.1C11 7.1 11 7.1 11 7.1Z" fill="#FFFFFF" fill-opacity="1.000000" fill-rule="nonzero"/>
		<path id="Vector" d="M11 7.1C11 7.1 11 7.1 11 7.1C11.08 7.11 12.42 7.14 11 7.1Z" fill="#FFFFFF" fill-opacity="1.000000" fill-rule="nonzero"/>
		<path id="Vector" d="" fill="#FFFFFF" fill-opacity="1.000000" fill-rule="nonzero"/>
		<path id="Vector" d="M12.32 9.97C12.32 9.97 12.33 9.97 12.33 9.97C12.32 9.97 12.32 9.97 12.31 9.97C12.31 9.97 12.32 9.97 12.32 9.97Z" fill="#FFFFFF" fill-opacity="1.000000" fill-rule="nonzero"/>
		<path id="Vector" d="M12.32 9.97C12.32 9.98 12.31 9.97 12.3 9.97C12.28 9.97 12.25 9.98 12.32 9.97Z" fill="#FFFFFF" fill-opacity="1.000000" fill-rule="nonzero"/>
		<path id="Vector" d="M12.33 9.97C12.33 9.97 12.32 9.97 12.32 9.97C12.33 9.97 12.33 9.97 12.33 9.97Z" fill="#FFFFFF" fill-opacity="1.000000" fill-rule="nonzero"/>
	</g>
</svg>
