<svg width="18.000000" height="18.000000" viewBox="0 0 18 18" fill="none" xmlns="http://www.w3.org/2000/svg" xmlns:xlink="http://www.w3.org/1999/xlink">
	<desc>
			Created with Pixso.
	</desc>
	<defs/>
	<path id="Vector" d="M17.59 4.32L17.58 4.3C17.15 2.6 15.19 0.78 13.4 0.4L13.37 0.4C10.47 -0.14 7.52 -0.14 4.61 0.4L4.59 0.4C2.8 0.78 0.84 2.6 0.4 4.3L0.4 4.32C-0.14 6.69 -0.14 9.1 0.4 11.47L0.4 11.49C0.82 13.12 2.63 14.86 4.36 15.33L4.36 17.23C4.36 17.92 5.23 18.25 5.72 17.76L7.7 15.76C8.13 15.79 8.57 15.8 9 15.8C10.46 15.8 11.92 15.66 13.37 15.4L13.4 15.39C15.19 15.01 17.15 13.19 17.58 11.49L17.59 11.47C18.13 9.1 18.13 6.69 17.59 4.32ZM16.02 11.13C15.73 12.24 14.25 13.61 13.06 13.87C11.51 14.15 9.96 14.27 8.4 14.23C8.37 14.23 8.34 14.24 8.32 14.26C8.1 14.48 6.87 15.7 6.87 15.7L5.33 17.24C5.21 17.35 5.02 17.27 5.02 17.11L5.02 13.97C5.02 13.92 4.98 13.88 4.92 13.87C4.92 13.87 4.92 13.87 4.92 13.87C3.75 13.61 2.26 12.24 1.97 11.13C1.48 8.98 1.48 6.81 1.97 4.67C2.26 3.56 3.75 2.18 4.92 1.93C7.62 1.43 10.36 1.43 13.06 1.93C14.25 2.18 15.73 3.56 16.02 4.67C16.5 6.81 16.5 8.98 16.02 11.13Z" fill="#060F42" fill-opacity="1.000000" fill-rule="nonzero"/>
	<path id="Vector" d="M11.38 12.8C11.21 12.75 11.03 12.71 10.88 12.64C9.24 11.96 7.73 11.08 6.53 9.74C5.85 8.98 5.32 8.11 4.87 7.2C4.66 6.76 4.48 6.31 4.3 5.87C4.13 5.46 4.37 5.04 4.63 4.73C4.88 4.44 5.19 4.22 5.53 4.06C5.79 3.93 6.05 4 6.25 4.23C6.66 4.71 7.05 5.22 7.36 5.78C7.55 6.13 7.5 6.55 7.15 6.79C7.07 6.84 6.99 6.91 6.91 6.97C6.84 7.03 6.78 7.09 6.73 7.16C6.64 7.31 6.64 7.47 6.69 7.62C7.12 8.79 7.84 9.71 9.02 10.2C9.21 10.28 9.4 10.37 9.62 10.34C9.98 10.3 10.1 9.9 10.35 9.69C10.6 9.49 10.92 9.49 11.19 9.66C11.46 9.83 11.72 10.01 11.98 10.19C12.24 10.37 12.49 10.55 12.73 10.76C12.95 10.96 13.03 11.22 12.9 11.49C12.67 11.98 12.33 12.39 11.84 12.65C11.7 12.73 11.54 12.75 11.38 12.8Z" fill="#060F42" fill-opacity="1.000000" fill-rule="nonzero"/>
	<path id="Vector" d="M8.86 3.49C11 3.55 12.76 4.98 13.14 7.1C13.21 7.46 13.23 7.83 13.26 8.19C13.27 8.35 13.18 8.5 13.01 8.5C12.84 8.5 12.76 8.35 12.75 8.2C12.73 7.9 12.72 7.59 12.67 7.29C12.45 5.69 11.18 4.37 9.59 4.08C9.35 4.04 9.1 4.03 8.86 4C8.71 3.99 8.51 3.98 8.48 3.79C8.45 3.63 8.58 3.5 8.73 3.5C8.78 3.49 8.82 3.49 8.86 3.49Z" fill="#060F42" fill-opacity="1.000000" fill-rule="nonzero"/>
	<path id="Vector" d="M12.12 7.72C12.11 7.75 12.11 7.81 12.1 7.87C12.04 8.08 11.71 8.11 11.64 7.89C11.62 7.83 11.61 7.75 11.61 7.69C11.61 7.23 11.51 6.78 11.28 6.38C11.05 5.98 10.69 5.64 10.27 5.43C10.01 5.3 9.74 5.23 9.46 5.18C9.33 5.16 9.21 5.15 9.09 5.13C8.94 5.11 8.86 5.01 8.87 4.87C8.87 4.73 8.98 4.63 9.12 4.64C9.62 4.67 10.09 4.77 10.53 5.01C11.42 5.48 11.92 6.22 12.07 7.21C12.08 7.26 12.09 7.3 12.1 7.35C12.1 7.46 12.11 7.57 12.12 7.72Z" fill="#060F42" fill-opacity="1.000000" fill-rule="nonzero"/>
	<path id="Vector" d="M10.78 7.67C10.6 7.67 10.51 7.57 10.49 7.41C10.48 7.29 10.46 7.17 10.44 7.06C10.39 6.84 10.27 6.64 10.08 6.5C10 6.44 9.9 6.4 9.79 6.36C9.66 6.33 9.52 6.34 9.39 6.31C9.25 6.27 9.17 6.16 9.19 6.02C9.21 5.9 9.33 5.8 9.47 5.81C10.3 5.87 10.89 6.3 10.98 7.28C10.98 7.35 10.99 7.42 10.98 7.49C10.95 7.6 10.86 7.66 10.78 7.67Z" fill="#060F42" fill-opacity="1.000000" fill-rule="nonzero"/>
</svg>
