<svg width="36.000000" height="12.226562" viewBox="0 0 36 12.2266" fill="none" xmlns="http://www.w3.org/2000/svg" xmlns:xlink="http://www.w3.org/1999/xlink">
	<desc>
			Created with Pixso.
	</desc>
	<defs/>
	<path id="Vector" d="M13.66 0.21L8.95 12L5.86 12L3.55 2.6C3.42 2.03 3.3 1.82 2.89 1.56C2.18 1.16 1.03 0.78 0 0.56L0.08 0.21L5.03 0.21C5.65 0.21 6.23 0.65 6.35 1.43L7.59 8.28L10.6 0.25L13.66 0.25L13.66 0.21ZM25.71 8.15C25.71 5.02 21.63 4.85 21.63 3.46C21.63 3.03 22.04 2.6 22.87 2.47C23.28 2.42 24.44 2.38 25.76 2.99L26.25 0.47C25.55 0.25 24.64 0 23.53 0C20.64 0 18.62 1.6 18.62 3.9C18.62 5.59 20.06 6.54 21.17 7.11C22.29 7.67 22.7 8.06 22.7 8.58C22.7 9.36 21.79 9.71 20.97 9.75C19.52 9.79 18.66 9.32 18 9.01L17.46 11.61C18.12 11.96 19.4 12.22 20.68 12.22C23.69 12.22 25.71 10.62 25.71 8.15ZM33.31 12L36 12L33.64 0.21L31.16 0.21C30.58 0.21 30.13 0.56 29.92 1.08L25.55 12L28.6 12L29.23 10.23L32.94 10.23L33.31 12ZM30.05 7.84L31.58 3.42L32.44 7.84L30.05 7.84ZM17.83 0.21L15.44 12L12.55 12L14.94 0.21L17.83 0.21Z" fill="#F4F8FB" fill-opacity="1.000000" fill-rule="nonzero"/>
</svg>
