<svg width="24.000000" height="24.003906" viewBox="0 0 24 24.0039" fill="none" xmlns="http://www.w3.org/2000/svg" xmlns:xlink="http://www.w3.org/1999/xlink">
	<desc>
			Created with Pixso.
	</desc>
	<defs/>
	<rect id="Shape" rx="0.000000" width="23.000000" height="23.003235" transform="translate(0.500000 0.500000)" fill="#FFFFFF" fill-opacity="0"/>
	<path id="Exclude" d="M21.5898 7.19336C21.3555 6.33594 20.6836 5.66016 19.8242 5.42969C18.2617 5.00195 12 5.00195 12 5.00195C12 5.00195 5.73828 5.00195 4.17578 5.41406C3.33594 5.64453 2.64062 6.33594 2.41016 7.19336C2 8.75781 2 12.0039 2 12.0039C2 12.0039 2 15.2656 2.41016 16.8145C2.64062 17.6699 3.31641 18.3457 4.17578 18.5762C5.75781 19.0059 12 19.0059 12 19.0059C12 19.0059 18.2617 19.0059 19.8242 18.5938C20.6836 18.3633 21.3555 17.6875 21.5898 16.8301C22 15.2656 22 12.0195 22 12.0195C22 12.0195 22.0156 8.75781 21.5898 7.19336ZM15 12.0039L10 15.002L10 9.00586L15 12.0039Z" clip-rule="evenodd" fill="#060F42" fill-opacity="1.000000" fill-rule="evenodd"/>
</svg>
